<svg width="25" height="24" viewBox="0 0 25 24" fill="none" xmlns="http://www.w3.org/2000/svg">
<path d="M18.1729 2.99805C17.3772 2.99805 16.6115 3.31411 16.0443 3.8767C15.4771 4.43929 15.1548 5.20232 15.1482 5.99795L15.0498 17.9975C15.0433 18.7932 15.3531 19.5562 15.9111 20.1188C16.4691 20.6814 17.2295 20.9974 18.0252 20.9974C18.8208 20.9974 19.5865 20.6814 20.1537 20.1188C20.721 19.5562 21.0433 18.7932 21.0498 17.9975C21.0563 17.2019 20.7465 16.4389 20.1885 15.8763C19.6305 15.3137 18.8701 14.9976 18.0744 14.9976H6.07442C5.27877 14.9976 4.51311 15.3137 3.94589 15.8763C3.37866 16.4389 3.05633 17.2019 3.04981 17.9975C3.04328 18.7932 3.35309 19.5562 3.91109 20.1188C4.46908 20.6814 5.22955 20.9974 6.0252 20.9974C6.82085 20.9974 7.5865 20.6814 8.15373 20.1188C8.72095 19.5562 9.04328 18.7932 9.04981 17.9975L9.14824 5.99795C9.15477 5.20232 8.84496 4.43929 8.28696 3.8767C7.72897 3.31411 6.9685 2.99805 6.17285 2.99805C5.3772 2.99805 4.61155 3.31411 4.04432 3.8767C3.4771 4.43929 3.15477 5.20232 3.14824 5.99795C3.14172 6.79357 3.45153 7.55661 4.00952 8.1192C4.56752 8.68179 5.32798 8.99785 6.12363 8.99785H18.1236C18.9193 8.99785 19.6849 8.68179 20.2522 8.1192C20.8194 7.55661 21.1417 6.79357 21.1482 5.99795C21.1548 5.20232 20.845 4.43929 20.287 3.8767C19.729 3.31411 18.9685 2.99805 18.1729 2.99805Z" stroke="black" stroke-width="2" stroke-linecap="round" stroke-linejoin="round"/>
</svg>
