<svg width="25" height="24" viewBox="0 0 25 24" fill="none" xmlns="http://www.w3.org/2000/svg">
<path d="M20.8438 6.99561H4.84375C3.73918 6.99561 2.8364 7.89101 2.82734 8.99554L2.74531 18.9952C2.73625 20.0997 3.62434 20.9951 4.72891 20.9951H20.7289C21.8335 20.9951 22.7363 20.0997 22.7453 18.9952L22.8273 8.99554C22.8364 7.89101 21.9483 6.99561 20.8438 6.99561Z" stroke="black" stroke-width="2" stroke-linecap="round" stroke-linejoin="round"/>
<path d="M16.7293 20.995L16.8605 4.99554C16.8649 4.46512 16.6584 3.95643 16.2864 3.58137C15.9144 3.20631 15.4074 2.99561 14.877 2.99561H10.877C10.3465 2.99561 9.83608 3.20631 9.45793 3.58137C9.07979 3.95643 8.8649 4.46512 8.86055 4.99554L8.7293 20.995" stroke="black" stroke-width="2" stroke-linecap="round" stroke-linejoin="round"/>
</svg>
