<svg width="25" height="24" viewBox="0 0 25 24" fill="none" xmlns="http://www.w3.org/2000/svg">
<g clip-path="url(#clip0_469_7432)">
<path d="M20.4014 7.67564C20.4014 6.88 20.0853 6.11691 19.5227 5.5543L15.5907 1.62233C15.0281 1.05972 14.2651 0.743652 13.4694 0.743652H4.65137C2.99452 0.743652 1.65137 2.0868 1.65137 3.74365L1.65137 4.49365C1.65137 4.90788 1.98715 5.24365 2.40137 5.24365C2.81558 5.24365 3.15137 4.90788 3.15137 4.49365L3.15137 3.74365C3.15137 2.91522 3.82294 2.24365 4.65137 2.24365H13.4694C13.8672 2.24365 14.2487 2.40169 14.53 2.68299L18.462 6.61499C18.7433 6.89628 18.9014 7.2778 18.9014 7.67564L18.9014 10.8789C19.4191 10.9072 19.9212 10.9939 20.4014 11.1325L20.4014 7.67564Z" fill="black"/>
<path d="M3.15137 20.2437L3.15137 8.24365C3.15137 7.82943 2.81558 7.49365 2.40137 7.49365C1.98715 7.49365 1.65137 7.82943 1.65137 8.24365L1.65137 20.2437C1.65137 21.9005 2.99451 23.2437 4.65137 23.2437H14.7938C14.1784 22.8345 13.634 22.327 13.183 21.7437H4.65137C3.82294 21.7437 3.15137 21.0721 3.15137 20.2437Z" fill="black"/>
<path d="M11.0264 18.3687C11.2925 18.3687 11.5549 18.3523 11.8124 18.3207C11.7886 18.0899 11.7764 17.8557 11.7764 17.6187C11.7764 17.3428 11.7929 17.0707 11.8251 16.8036C11.5652 16.8464 11.2984 16.8687 11.0264 16.8687C8.33398 16.8687 6.15137 14.686 6.15137 11.9937C6.15137 9.30126 8.33398 7.11865 11.0264 7.11865C13.5221 7.11865 15.5799 8.99414 15.8671 11.4127C16.3275 11.2152 16.8142 11.0674 17.3206 10.9761C16.8334 7.93893 14.2008 5.61865 11.0264 5.61865C7.50557 5.61865 4.65137 8.47285 4.65137 11.9937C4.65137 15.5145 7.50557 18.3687 11.0264 18.3687Z" fill="black"/>
<path d="M11.7764 8.99365C11.7764 8.57943 11.4406 8.24365 11.0264 8.24365C10.6121 8.24365 10.2764 8.57943 10.2764 8.99365L10.2764 11.2437H9.15137C8.73714 11.2437 8.40137 11.5794 8.40137 11.9937C8.40137 12.4079 8.73714 12.7437 9.15137 12.7437H11.0264C11.4406 12.7437 11.7764 12.4079 11.7764 11.9937L11.7764 8.99365Z" fill="black"/>
<path d="M19.5204 13.638C18.3842 13.336 17.2324 13.5228 16.2919 14.0681C16.4141 14.1894 16.4954 14.3533 16.5106 14.5384C16.5446 14.9512 16.2375 15.3135 15.8247 15.3475L14.5147 15.4554C14.2195 15.4797 13.9378 15.328 13.7954 15.0684C13.6531 14.8087 13.6769 14.4895 13.8562 14.2539C15.2195 12.4614 17.5874 11.5721 19.9057 12.1884C22.7295 12.939 24.4972 15.6631 24.0938 18.4753C24.035 18.8853 23.655 19.17 23.2449 19.1112C22.8349 19.0524 22.5502 18.6723 22.609 18.2623C22.9045 16.2024 21.6086 14.1931 19.5204 13.638Z" fill="black"/>
<path d="M13.7694 16.3112C14.1809 16.359 14.4757 16.7313 14.4279 17.1427C14.1986 19.1169 15.4841 21.0476 17.5491 21.5966C18.6812 21.8975 19.8228 21.7224 20.7542 21.2009C20.6371 21.0797 20.56 20.9186 20.5462 20.7375C20.5145 20.3245 20.8236 19.964 21.2366 19.9324L22.5446 19.8321C22.8399 19.8094 23.121 19.9628 23.2618 20.2233C23.4026 20.484 23.3768 20.8031 23.196 21.0377C21.8368 22.8014 19.4744 23.6604 17.1637 23.0462C14.3958 22.3104 12.6207 19.7016 12.9379 16.9697C12.9857 16.5582 13.358 16.2634 13.7694 16.3112Z" fill="black"/>
</g>
<defs>
<clipPath id="clip0_469_7432">
<rect width="24" height="24" fill="white" transform="translate(0.901367 -0.00634766)"/>
</clipPath>
</defs>
</svg>
