<svg width="25" height="24" viewBox="0 0 25 24" fill="none" xmlns="http://www.w3.org/2000/svg">
<path d="M12.9014 2.24707C6.97137 2.24707 2.15137 7.06707 2.15137 12.9971C2.15137 15.8671 3.27137 18.5671 5.30137 20.5971C5.59137 20.8871 6.07137 20.8871 6.36137 20.5971L9.19137 17.7671C9.33137 17.6271 9.41137 17.4371 9.41137 17.2371C9.41137 17.0371 9.33137 16.8471 9.19137 16.7071C8.20137 15.7271 7.65137 14.4071 7.65137 12.9971C7.65137 10.0971 10.0014 7.74707 12.9014 7.74707C15.8014 7.74707 18.1514 10.0971 18.1514 12.9971C18.1514 14.4071 17.6014 15.7171 16.6114 16.7071C16.4714 16.8471 16.3914 17.0371 16.3914 17.2371C16.3914 17.4371 16.4714 17.6271 16.6114 17.7671L19.4414 20.5971C19.5914 20.7471 19.7814 20.8171 19.9714 20.8171C20.1614 20.8171 20.3514 20.7471 20.5014 20.5971C22.5314 18.5671 23.6514 15.8671 23.6514 12.9971C23.6514 7.06707 18.8314 2.24707 12.9014 2.24707ZM19.6114 12.2471C19.4714 10.9471 18.9514 9.75707 18.1714 8.78707L19.9414 7.01707C21.1614 8.45707 21.9514 10.2671 22.1114 12.2471H19.6014H19.6114ZM13.6514 6.28707L13.6514 3.77707C15.6414 3.93707 17.4514 4.72707 18.8814 5.94707L17.1114 7.71707C16.1414 6.93707 14.9514 6.42707 13.6514 6.27707L13.6514 6.28707ZM8.69137 7.72707L6.92137 5.95707C8.36137 4.73707 10.1714 3.94707 12.1514 3.78707L12.1514 6.29707C10.8514 6.43707 9.66137 6.95707 8.69137 7.73707L8.69137 7.72707ZM5.86137 7.01707L7.63137 8.78707C6.85137 9.75707 6.34137 10.9471 6.19137 12.2471H3.68137C3.84137 10.2571 4.63137 8.44707 5.85137 7.01707H5.86137ZM5.86137 18.9871C4.60137 17.5071 3.85137 15.6871 3.69137 13.7471H6.22137C6.36137 15.0171 6.83137 16.2171 7.63137 17.2071L5.86137 18.9871ZM19.9614 18.9871L18.1914 17.2071C18.9914 16.2171 19.4614 15.0171 19.6014 13.7471H22.1314C21.9814 15.6871 21.2214 17.5071 19.9614 18.9871ZM16.6614 20.9971C16.6614 21.4071 16.3214 21.7471 15.9114 21.7471H9.91137C9.50137 21.7471 9.16137 21.4071 9.16137 20.9971C9.16137 20.5871 9.50137 20.2471 9.91137 20.2471H15.9114C16.3214 20.2471 16.6614 20.5871 16.6614 20.9971ZM15.6114 11.2771L14.1914 14.8171C14.4814 15.1271 14.6614 15.5471 14.6614 15.9971C14.6614 16.9571 13.8714 17.7471 12.9114 17.7471C11.9514 17.7471 11.1614 16.9571 11.1614 15.9971C11.1614 15.0371 11.8914 14.3171 12.8014 14.2571L14.2214 10.7171C14.3714 10.3371 14.8114 10.1471 15.1914 10.2971C15.5714 10.4471 15.7614 10.8871 15.6114 11.2671L15.6114 11.2771Z" fill="black"/>
</svg>
