<svg width="25" height="25" viewBox="0 0 25 25" fill="none" xmlns="http://www.w3.org/2000/svg">
<g clip-path="url(#clip0_465_7416)">
<mask id="path-1-outside-1_465_7416" maskUnits="userSpaceOnUse" x="-0.0986328" y="0.609375" width="26" height="25" fill="black">
<rect fill="white" x="-0.0986328" y="0.609375" width="26" height="25"/>
<path d="M20.8432 16.5262C18.7607 16.5262 17.0393 18.1006 16.8061 20.1217H14.8314C14.0257 20.1217 13.3703 19.4662 13.3703 18.6606L13.3703 16.9591C22.0583 16.2282 23.5159 4.32268 15.0824 1.63427C14.8336 1.56219 14.5735 1.70547 14.5014 1.95422C14.4293 2.20302 14.5726 2.46312 14.8214 2.53521C19.1046 3.73944 21.1262 8.86111 18.8301 12.6475C18.1117 11.3205 16.7294 10.432 15.1905 10.3649C16.1186 9.41752 16.1731 8.5081 16.1376 7.22034C16.263 7.22039 16.3833 7.17016 16.4715 7.08086C16.5596 6.99166 16.6083 6.8708 16.6067 6.74544C16.5185 3.39989 12.1024 2.26544 10.1391 4.55966C9.55736 5.19622 9.1959 6.03604 9.1959 6.75135C9.19417 7.03547 9.44574 7.24637 9.72399 7.22034C9.68867 8.50899 9.74284 9.41574 10.6693 10.3634C9.10764 10.4108 7.69987 11.3041 6.9726 12.6475C5.56244 10.3571 5.72902 7.10558 7.42931 4.96918C8.32508 3.79853 9.59431 2.93183 11.0031 2.52869C11.5942 2.33711 11.3476 1.47674 10.7451 1.62686C2.27452 4.34795 3.71306 16.148 12.4323 16.9591L12.4323 18.6606C12.4323 19.4662 11.7769 20.1217 10.9712 20.1217H8.99649C8.76331 18.1006 7.04192 16.5261 4.95941 16.5261C1.12334 16.5289 -0.568506 21.4246 2.45007 23.788C3.90694 24.9328 6.01304 24.9331 7.46917 23.7876C8.33277 23.1092 8.87436 22.1333 8.99705 21.0596H10.9713C11.7618 21.0596 12.464 20.6751 12.9014 20.0835C13.3387 20.6751 14.0409 21.0596 14.8315 21.0596H16.8057C16.9284 22.1334 17.4701 23.1095 18.3339 23.788C19.7908 24.9328 21.8969 24.9331 23.353 23.7876C26.372 21.4231 24.6777 16.5287 20.8432 16.5262ZM4.83372 23.7146C4.25423 23.6922 3.68853 23.5065 3.2088 23.1809C3.17203 22.5778 3.65008 22.0558 4.25765 22.058H5.66149C6.26883 22.0558 6.74711 22.5776 6.71034 23.1806C6.15998 23.5548 5.49851 23.7405 4.83372 23.7146ZM4.28073 20.4411L4.28073 20.0045C4.31497 19.1049 5.60446 19.1056 5.63837 20.0045L5.63837 20.4411C5.63837 20.8154 5.33385 21.1199 4.95955 21.1199C4.58525 21.1199 4.28073 20.8154 4.28073 20.4411ZM7.51513 22.3928C7.31135 21.8657 6.88936 21.4466 6.36015 21.2472C6.49737 21.0097 6.57635 20.7345 6.57635 20.4411L6.57635 20.0045C6.49484 17.862 3.42351 17.8636 3.34275 20.0045L3.34275 20.4411C3.34275 20.7345 3.42172 21.0097 3.55895 21.2472C3.02969 21.4467 2.6076 21.866 2.40392 22.3933C0.943149 20.3669 2.451 17.4417 4.95941 17.4642C7.46729 17.4416 8.97576 20.3669 7.51513 22.3928ZM12.9224 11.2986C12.9278 11.2989 12.9332 11.2989 12.9386 11.2986H14.3176C13.7972 12.5071 12.0638 12.5064 11.5439 11.2986H12.9224ZM12.936 4.28609C14.2481 4.28609 15.3555 5.14613 15.6127 6.28212H15.4583C15.1576 6.24287 14.8917 6.06629 14.6498 5.89502C14.4961 5.78621 14.2857 5.78101 14.1269 5.88198C13.7592 6.11573 13.3482 6.28212 12.9069 6.28212H10.2059C10.4575 5.40094 11.369 4.28609 12.936 4.28609ZM10.662 8.09182L10.662 7.22034H12.9067C13.4181 7.22034 13.914 7.07589 14.3615 6.83263C14.6188 6.99523 14.9003 7.12739 15.1997 7.18911L15.1997 8.09182C15.1997 9.33967 14.1871 10.3552 12.9405 10.3606H12.9206C11.6743 10.3552 10.662 9.33962 10.662 8.09182ZM10.5591 11.3076C11.2102 13.7449 14.6464 13.7466 15.3012 11.3123C16.6101 11.4285 17.7522 12.3004 18.2051 13.5358C17.9078 13.8947 17.5745 14.2228 17.2113 14.5151L17.2113 14.0027C17.1884 13.3813 16.2963 13.3813 16.2734 14.0027L16.2734 15.151C15.5192 15.5765 14.6775 15.8642 13.7824 15.979C13.1977 16.053 12.605 16.053 12.0203 15.979C11.1231 15.8639 10.2797 15.5752 9.5242 15.1482L9.5242 13.934C9.50122 13.3126 8.6091 13.3127 8.58621 13.934L8.58621 14.5111C8.225 14.2198 7.89347 13.8931 7.59749 13.5358C8.05705 12.2823 9.2262 11.4029 10.5591 11.3076ZM20.7176 23.7146C20.1381 23.6922 19.5724 23.5065 19.0927 23.1809C19.0559 22.5778 19.5339 22.0558 20.1415 22.058H21.5454C22.1527 22.0558 22.631 22.5776 22.5943 23.1806C22.0438 23.5548 21.3824 23.7405 20.7176 23.7146ZM20.1646 20.4411L20.1646 20.0045C20.1988 19.1049 21.4883 19.1056 21.5222 20.0045L21.5222 20.4411C21.488 21.3406 20.1985 21.3399 20.1646 20.4411ZM23.399 22.3928C23.1952 21.8657 22.7732 21.4466 22.244 21.2472C22.3812 21.0097 22.4602 20.7345 22.4602 20.4411L22.4602 20.0045C22.3787 17.862 19.3074 17.8636 19.2266 20.0045L19.2266 20.4411C19.2266 20.7345 19.3056 21.0097 19.4428 21.2472C18.9136 21.4467 18.4915 21.866 18.2878 22.3933C16.827 20.3669 18.3349 17.4417 20.8433 17.4642C23.3511 17.4416 24.8596 20.3669 23.399 22.3928Z"/>
</mask>
<path d="M20.8432 16.5262C18.7607 16.5262 17.0393 18.1006 16.8061 20.1217H14.8314C14.0257 20.1217 13.3703 19.4662 13.3703 18.6606L13.3703 16.9591C22.0583 16.2282 23.5159 4.32268 15.0824 1.63427C14.8336 1.56219 14.5735 1.70547 14.5014 1.95422C14.4293 2.20302 14.5726 2.46312 14.8214 2.53521C19.1046 3.73944 21.1262 8.86111 18.8301 12.6475C18.1117 11.3205 16.7294 10.432 15.1905 10.3649C16.1186 9.41752 16.1731 8.5081 16.1376 7.22034C16.263 7.22039 16.3833 7.17016 16.4715 7.08086C16.5596 6.99166 16.6083 6.8708 16.6067 6.74544C16.5185 3.39989 12.1024 2.26544 10.1391 4.55966C9.55736 5.19622 9.1959 6.03604 9.1959 6.75135C9.19417 7.03547 9.44574 7.24637 9.72399 7.22034C9.68867 8.50899 9.74284 9.41574 10.6693 10.3634C9.10764 10.4108 7.69987 11.3041 6.9726 12.6475C5.56244 10.3571 5.72902 7.10558 7.42931 4.96918C8.32508 3.79853 9.59431 2.93183 11.0031 2.52869C11.5942 2.33711 11.3476 1.47674 10.7451 1.62686C2.27452 4.34795 3.71306 16.148 12.4323 16.9591L12.4323 18.6606C12.4323 19.4662 11.7769 20.1217 10.9712 20.1217H8.99649C8.76331 18.1006 7.04192 16.5261 4.95941 16.5261C1.12334 16.5289 -0.568506 21.4246 2.45007 23.788C3.90694 24.9328 6.01304 24.9331 7.46917 23.7876C8.33277 23.1092 8.87436 22.1333 8.99705 21.0596H10.9713C11.7618 21.0596 12.464 20.6751 12.9014 20.0835C13.3387 20.6751 14.0409 21.0596 14.8315 21.0596H16.8057C16.9284 22.1334 17.4701 23.1095 18.3339 23.788C19.7908 24.9328 21.8969 24.9331 23.353 23.7876C26.372 21.4231 24.6777 16.5287 20.8432 16.5262ZM4.83372 23.7146C4.25423 23.6922 3.68853 23.5065 3.2088 23.1809C3.17203 22.5778 3.65008 22.0558 4.25765 22.058H5.66149C6.26883 22.0558 6.74711 22.5776 6.71034 23.1806C6.15998 23.5548 5.49851 23.7405 4.83372 23.7146ZM4.28073 20.4411L4.28073 20.0045C4.31497 19.1049 5.60446 19.1056 5.63837 20.0045L5.63837 20.4411C5.63837 20.8154 5.33385 21.1199 4.95955 21.1199C4.58525 21.1199 4.28073 20.8154 4.28073 20.4411ZM7.51513 22.3928C7.31135 21.8657 6.88936 21.4466 6.36015 21.2472C6.49737 21.0097 6.57635 20.7345 6.57635 20.4411L6.57635 20.0045C6.49484 17.862 3.42351 17.8636 3.34275 20.0045L3.34275 20.4411C3.34275 20.7345 3.42172 21.0097 3.55895 21.2472C3.02969 21.4467 2.6076 21.866 2.40392 22.3933C0.943149 20.3669 2.451 17.4417 4.95941 17.4642C7.46729 17.4416 8.97576 20.3669 7.51513 22.3928ZM12.9224 11.2986C12.9278 11.2989 12.9332 11.2989 12.9386 11.2986H14.3176C13.7972 12.5071 12.0638 12.5064 11.5439 11.2986H12.9224ZM12.936 4.28609C14.2481 4.28609 15.3555 5.14613 15.6127 6.28212H15.4583C15.1576 6.24287 14.8917 6.06629 14.6498 5.89502C14.4961 5.78621 14.2857 5.78101 14.1269 5.88198C13.7592 6.11573 13.3482 6.28212 12.9069 6.28212H10.2059C10.4575 5.40094 11.369 4.28609 12.936 4.28609ZM10.662 8.09182L10.662 7.22034H12.9067C13.4181 7.22034 13.914 7.07589 14.3615 6.83263C14.6188 6.99523 14.9003 7.12739 15.1997 7.18911L15.1997 8.09182C15.1997 9.33967 14.1871 10.3552 12.9405 10.3606H12.9206C11.6743 10.3552 10.662 9.33962 10.662 8.09182ZM10.5591 11.3076C11.2102 13.7449 14.6464 13.7466 15.3012 11.3123C16.6101 11.4285 17.7522 12.3004 18.2051 13.5358C17.9078 13.8947 17.5745 14.2228 17.2113 14.5151L17.2113 14.0027C17.1884 13.3813 16.2963 13.3813 16.2734 14.0027L16.2734 15.151C15.5192 15.5765 14.6775 15.8642 13.7824 15.979C13.1977 16.053 12.605 16.053 12.0203 15.979C11.1231 15.8639 10.2797 15.5752 9.5242 15.1482L9.5242 13.934C9.50122 13.3126 8.6091 13.3127 8.58621 13.934L8.58621 14.5111C8.225 14.2198 7.89347 13.8931 7.59749 13.5358C8.05705 12.2823 9.2262 11.4029 10.5591 11.3076ZM20.7176 23.7146C20.1381 23.6922 19.5724 23.5065 19.0927 23.1809C19.0559 22.5778 19.5339 22.0558 20.1415 22.058H21.5454C22.1527 22.0558 22.631 22.5776 22.5943 23.1806C22.0438 23.5548 21.3824 23.7405 20.7176 23.7146ZM20.1646 20.4411L20.1646 20.0045C20.1988 19.1049 21.4883 19.1056 21.5222 20.0045L21.5222 20.4411C21.488 21.3406 20.1985 21.3399 20.1646 20.4411ZM23.399 22.3928C23.1952 21.8657 22.7732 21.4466 22.244 21.2472C22.3812 21.0097 22.4602 20.7345 22.4602 20.4411L22.4602 20.0045C22.3787 17.862 19.3074 17.8636 19.2266 20.0045L19.2266 20.4411C19.2266 20.7345 19.3056 21.0097 19.4428 21.2472C18.9136 21.4467 18.4915 21.866 18.2878 22.3933C16.827 20.3669 18.3349 17.4417 20.8433 17.4642C23.3511 17.4416 24.8596 20.3669 23.399 22.3928Z" fill="black"/>
<path d="M20.8432 16.5262C18.7607 16.5262 17.0393 18.1006 16.8061 20.1217H14.8314C14.0257 20.1217 13.3703 19.4662 13.3703 18.6606L13.3703 16.9591C22.0583 16.2282 23.5159 4.32268 15.0824 1.63427C14.8336 1.56219 14.5735 1.70547 14.5014 1.95422C14.4293 2.20302 14.5726 2.46312 14.8214 2.53521C19.1046 3.73944 21.1262 8.86111 18.8301 12.6475C18.1117 11.3205 16.7294 10.432 15.1905 10.3649C16.1186 9.41752 16.1731 8.5081 16.1376 7.22034C16.263 7.22039 16.3833 7.17016 16.4715 7.08086C16.5596 6.99166 16.6083 6.8708 16.6067 6.74544C16.5185 3.39989 12.1024 2.26544 10.1391 4.55966C9.55736 5.19622 9.1959 6.03604 9.1959 6.75135C9.19417 7.03547 9.44574 7.24637 9.72399 7.22034C9.68867 8.50899 9.74284 9.41574 10.6693 10.3634C9.10764 10.4108 7.69987 11.3041 6.9726 12.6475C5.56244 10.3571 5.72902 7.10558 7.42931 4.96918C8.32508 3.79853 9.59431 2.93183 11.0031 2.52869C11.5942 2.33711 11.3476 1.47674 10.7451 1.62686C2.27452 4.34795 3.71306 16.148 12.4323 16.9591L12.4323 18.6606C12.4323 19.4662 11.7769 20.1217 10.9712 20.1217H8.99649C8.76331 18.1006 7.04192 16.5261 4.95941 16.5261C1.12334 16.5289 -0.568506 21.4246 2.45007 23.788C3.90694 24.9328 6.01304 24.9331 7.46917 23.7876C8.33277 23.1092 8.87436 22.1333 8.99705 21.0596H10.9713C11.7618 21.0596 12.464 20.6751 12.9014 20.0835C13.3387 20.6751 14.0409 21.0596 14.8315 21.0596H16.8057C16.9284 22.1334 17.4701 23.1095 18.3339 23.788C19.7908 24.9328 21.8969 24.9331 23.353 23.7876C26.372 21.4231 24.6777 16.5287 20.8432 16.5262ZM4.83372 23.7146C4.25423 23.6922 3.68853 23.5065 3.2088 23.1809C3.17203 22.5778 3.65008 22.0558 4.25765 22.058H5.66149C6.26883 22.0558 6.74711 22.5776 6.71034 23.1806C6.15998 23.5548 5.49851 23.7405 4.83372 23.7146ZM4.28073 20.4411L4.28073 20.0045C4.31497 19.1049 5.60446 19.1056 5.63837 20.0045L5.63837 20.4411C5.63837 20.8154 5.33385 21.1199 4.95955 21.1199C4.58525 21.1199 4.28073 20.8154 4.28073 20.4411ZM7.51513 22.3928C7.31135 21.8657 6.88936 21.4466 6.36015 21.2472C6.49737 21.0097 6.57635 20.7345 6.57635 20.4411L6.57635 20.0045C6.49484 17.862 3.42351 17.8636 3.34275 20.0045L3.34275 20.4411C3.34275 20.7345 3.42172 21.0097 3.55895 21.2472C3.02969 21.4467 2.6076 21.866 2.40392 22.3933C0.943149 20.3669 2.451 17.4417 4.95941 17.4642C7.46729 17.4416 8.97576 20.3669 7.51513 22.3928ZM12.9224 11.2986C12.9278 11.2989 12.9332 11.2989 12.9386 11.2986H14.3176C13.7972 12.5071 12.0638 12.5064 11.5439 11.2986H12.9224ZM12.936 4.28609C14.2481 4.28609 15.3555 5.14613 15.6127 6.28212H15.4583C15.1576 6.24287 14.8917 6.06629 14.6498 5.89502C14.4961 5.78621 14.2857 5.78101 14.1269 5.88198C13.7592 6.11573 13.3482 6.28212 12.9069 6.28212H10.2059C10.4575 5.40094 11.369 4.28609 12.936 4.28609ZM10.662 8.09182L10.662 7.22034H12.9067C13.4181 7.22034 13.914 7.07589 14.3615 6.83263C14.6188 6.99523 14.9003 7.12739 15.1997 7.18911L15.1997 8.09182C15.1997 9.33967 14.1871 10.3552 12.9405 10.3606H12.9206C11.6743 10.3552 10.662 9.33962 10.662 8.09182ZM10.5591 11.3076C11.2102 13.7449 14.6464 13.7466 15.3012 11.3123C16.6101 11.4285 17.7522 12.3004 18.2051 13.5358C17.9078 13.8947 17.5745 14.2228 17.2113 14.5151L17.2113 14.0027C17.1884 13.3813 16.2963 13.3813 16.2734 14.0027L16.2734 15.151C15.5192 15.5765 14.6775 15.8642 13.7824 15.979C13.1977 16.053 12.605 16.053 12.0203 15.979C11.1231 15.8639 10.2797 15.5752 9.5242 15.1482L9.5242 13.934C9.50122 13.3126 8.6091 13.3127 8.58621 13.934L8.58621 14.5111C8.225 14.2198 7.89347 13.8931 7.59749 13.5358C8.05705 12.2823 9.2262 11.4029 10.5591 11.3076ZM20.7176 23.7146C20.1381 23.6922 19.5724 23.5065 19.0927 23.1809C19.0559 22.5778 19.5339 22.0558 20.1415 22.058H21.5454C22.1527 22.0558 22.631 22.5776 22.5943 23.1806C22.0438 23.5548 21.3824 23.7405 20.7176 23.7146ZM20.1646 20.4411L20.1646 20.0045C20.1988 19.1049 21.4883 19.1056 21.5222 20.0045L21.5222 20.4411C21.488 21.3406 20.1985 21.3399 20.1646 20.4411ZM23.399 22.3928C23.1952 21.8657 22.7732 21.4466 22.244 21.2472C22.3812 21.0097 22.4602 20.7345 22.4602 20.4411L22.4602 20.0045C22.3787 17.862 19.3074 17.8636 19.2266 20.0045L19.2266 20.4411C19.2266 20.7345 19.3056 21.0097 19.4428 21.2472C18.9136 21.4467 18.4915 21.866 18.2878 22.3933C16.827 20.3669 18.3349 17.4417 20.8433 17.4642C23.3511 17.4416 24.8596 20.3669 23.399 22.3928Z" stroke="black" stroke-width="0.4" mask="url(#path-1-outside-1_465_7416)"/>
<path d="M13.1185 2.32038L13.1186 2.3205L13.1231 2.31837C13.8011 2.00002 13.3921 1.01389 12.6879 1.26755L12.6879 1.26744L12.6836 1.26923C12.3972 1.3878 12.2569 1.72532 12.3761 2.01186C12.4946 2.30031 12.8322 2.4378 13.1185 2.32038Z" fill="black" stroke="black" stroke-width="0.2"/>
</g>
<defs>
<clipPath id="clip0_465_7416">
<rect width="24" height="24" fill="white" transform="translate(0.901367 0.986816)"/>
</clipPath>
</defs>
</svg>
