<svg width="25" height="25" viewBox="0 0 25 25" fill="none" xmlns="http://www.w3.org/2000/svg">
<path d="M20.4014 12.2349H5.40137C4.80463 12.2349 4.23233 11.9978 3.81038 11.5759C3.38842 11.1539 3.15137 10.5816 3.15137 9.98486L3.15137 9.23486C3.15137 8.63813 3.38842 8.06583 3.81038 7.64387C4.23233 7.22192 4.80463 6.98486 5.40137 6.98486H20.4014C20.9981 6.98486 21.5704 7.22192 21.9924 7.64387C22.4143 8.06583 22.6514 8.63813 22.6514 9.23486L22.6514 9.98486C22.6514 10.5816 22.4143 11.1539 21.9924 11.5759C21.5704 11.9978 20.9981 12.2349 20.4014 12.2349ZM5.40137 8.48486C5.20245 8.48486 5.01169 8.56388 4.87104 8.70453C4.73038 8.84519 4.65137 9.03595 4.65137 9.23486L4.65137 9.98486C4.65137 10.1838 4.73038 10.3745 4.87104 10.5152C5.01169 10.6558 5.20245 10.7349 5.40137 10.7349H20.4014C20.6003 10.7349 20.791 10.6558 20.9317 10.5152C21.0723 10.3745 21.1514 10.1838 21.1514 9.98486L21.1514 9.23486C21.1514 9.03595 21.0723 8.84519 20.9317 8.70453C20.791 8.56388 20.6003 8.48486 20.4014 8.48486H5.40137Z" fill="black"/>
<path d="M18.9014 22.7349H6.90137C6.30463 22.7349 5.73233 22.4978 5.31038 22.0759C4.88842 21.6539 4.65137 21.0816 4.65137 20.4849L4.65137 11.4849C4.65137 11.286 4.73038 11.0952 4.87104 10.9545C5.01169 10.8139 5.20245 10.7349 5.40137 10.7349H20.4014C20.6003 10.7349 20.791 10.8139 20.9317 10.9545C21.0723 11.0952 21.1514 11.286 21.1514 11.4849L21.1514 20.4849C21.1514 21.0816 20.9143 21.6539 20.4924 22.0759C20.0704 22.4978 19.4981 22.7349 18.9014 22.7349ZM6.15137 12.2349L6.15137 20.4849C6.15137 20.6838 6.23038 20.8745 6.37104 21.0152C6.51169 21.1558 6.70245 21.2349 6.90137 21.2349H18.9014C19.1003 21.2349 19.291 21.1558 19.4317 21.0152C19.5724 20.8745 19.6514 20.6838 19.6514 20.4849L19.6514 12.2349H6.15137Z" fill="black"/>
<path d="M14.7764 8.48486C14.2572 8.48486 13.7497 8.33091 13.318 8.04247C12.8863 7.75403 12.5499 7.34406 12.3512 6.86441C12.1525 6.38475 12.1005 5.85695 12.2018 5.34775C12.3031 4.83855 12.5531 4.37082 12.9202 4.00371C13.2873 3.6366 13.7551 3.38659 14.2643 3.2853C14.7735 3.18402 15.3013 3.236 15.7809 3.43468C16.2606 3.63336 16.6705 3.96981 16.959 4.40149C17.2474 4.83317 17.4014 5.34069 17.4014 5.85986C17.4014 6.55606 17.1248 7.22374 16.6325 7.71602C16.1402 8.2083 15.4726 8.48486 14.7764 8.48486ZM14.7764 4.73486C14.5539 4.73486 14.3364 4.80084 14.1514 4.92446C13.9663 5.04808 13.8222 5.22378 13.737 5.42935C13.6519 5.63491 13.6296 5.86111 13.673 6.07934C13.7164 6.29757 13.8235 6.49803 13.9809 6.65536C14.1382 6.81269 14.3387 6.91984 14.5569 6.96325C14.7751 7.00666 15.0013 6.98438 15.2069 6.89923C15.4125 6.81408 15.5882 6.66989 15.7118 6.48488C15.8354 6.29988 15.9014 6.08237 15.9014 5.85986C15.9014 5.5615 15.7828 5.27535 15.5719 5.06437C15.3609 4.85339 15.0747 4.73486 14.7764 4.73486Z" fill="black"/>
<path d="M11.0264 8.48486C10.5072 8.48486 9.99968 8.33091 9.568 8.04247C9.13632 7.75403 8.79986 7.34406 8.60118 6.86441C8.4025 6.38475 8.35052 5.85695 8.45181 5.34775C8.55309 4.83855 8.8031 4.37082 9.17021 4.00371C9.53733 3.6366 10.0051 3.38659 10.5143 3.2853C11.0235 3.18402 11.5513 3.236 12.0309 3.43468C12.5106 3.63336 12.9205 3.96981 13.209 4.40149C13.4974 4.83317 13.6514 5.34069 13.6514 5.85986C13.6514 6.55606 13.3748 7.22374 12.8825 7.71602C12.3902 8.2083 11.7226 8.48486 11.0264 8.48486ZM11.0264 4.73486C10.8039 4.73486 10.5864 4.80084 10.4014 4.92446C10.2163 5.04808 10.0722 5.22378 9.987 5.42935C9.90186 5.63491 9.87958 5.86111 9.92299 6.07934C9.96639 6.29757 10.0735 6.49803 10.2309 6.65536C10.3882 6.81269 10.5887 6.91984 10.8069 6.96325C11.0251 7.00666 11.2513 6.98438 11.4569 6.89923C11.6625 6.81408 11.8382 6.66989 11.9618 6.48488C12.0854 6.29988 12.1514 6.08237 12.1514 5.85986C12.1514 5.5615 12.0328 5.27535 11.8219 5.06437C11.6109 4.85339 11.3247 4.73486 11.0264 4.73486Z" fill="black"/>
<path d="M10.6514 16.7349C10.2064 16.7349 9.77135 16.6029 9.40134 16.3557C9.03132 16.1084 8.74294 15.757 8.57264 15.3459C8.40234 14.9348 8.35778 14.4824 8.4446 14.0459C8.53142 13.6095 8.74571 13.2085 9.06038 12.8939C9.37505 12.5792 9.77596 12.3649 10.2124 12.2781C10.6489 12.1913 11.1013 12.2358 11.5124 12.4061C11.9235 12.5764 12.2749 12.8648 12.5222 13.2348C12.7694 13.6048 12.9014 14.0399 12.9014 14.4849C12.9014 15.0816 12.6643 15.6539 12.2424 16.0759C11.8204 16.4978 11.2481 16.7349 10.6514 16.7349ZM10.6514 13.7349C10.503 13.7349 10.358 13.7789 10.2347 13.8613C10.1114 13.9437 10.0152 14.0608 9.95846 14.1979C9.90169 14.3349 9.88684 14.4857 9.91578 14.6312C9.94472 14.7767 10.0161 14.9103 10.121 15.0152C10.2259 15.1201 10.3596 15.1915 10.5051 15.2205C10.6505 15.2494 10.8013 15.2345 10.9384 15.1778C11.0754 15.121 11.1926 15.0249 11.275 14.9015C11.3574 14.7782 11.4014 14.6332 11.4014 14.4849C11.4014 14.286 11.3224 14.0952 11.1817 13.9545C11.041 13.8139 10.8503 13.7349 10.6514 13.7349Z" fill="black"/>
<path d="M15.1514 21.2349C14.7064 21.2349 14.2713 21.1029 13.9013 20.8557C13.5313 20.6084 13.2429 20.257 13.0726 19.8459C12.9023 19.4348 12.8578 18.9824 12.9446 18.5459C13.0314 18.1095 13.2457 17.7085 13.5604 17.3939C13.875 17.0792 14.276 16.8649 14.7124 16.7781C15.1489 16.6913 15.6013 16.7358 16.0124 16.9061C16.4235 17.0764 16.7749 17.3648 17.0222 17.7348C17.2694 18.1048 17.4014 18.5399 17.4014 18.9849C17.4014 19.5816 17.1643 20.1539 16.7424 20.5759C16.3204 20.9978 15.7481 21.2349 15.1514 21.2349ZM15.1514 18.2349C15.003 18.2349 14.858 18.2789 14.7347 18.3613C14.6114 18.4437 14.5152 18.5608 14.4585 18.6979C14.4017 18.8349 14.3868 18.9857 14.4158 19.1312C14.4447 19.2767 14.5161 19.4103 14.621 19.5152C14.7259 19.6201 14.8596 19.6915 15.005 19.7205C15.1505 19.7494 15.3013 19.7345 15.4384 19.6778C15.5754 19.621 15.6926 19.5249 15.775 19.4015C15.8574 19.2782 15.9014 19.1332 15.9014 18.9849C15.9014 18.786 15.8224 18.5952 15.6817 18.4545C15.541 18.3139 15.3503 18.2349 15.1514 18.2349Z" fill="black"/>
<path d="M10.6512 19.7349C10.5029 19.7349 10.3579 19.6909 10.2346 19.6085C10.1113 19.5261 10.0152 19.4089 9.95845 19.2719C9.9017 19.1349 9.88684 18.9841 9.91577 18.8387C9.9447 18.6932 10.0161 18.5596 10.121 18.4547L14.621 13.9547C14.7624 13.8181 14.9519 13.7425 15.1485 13.7442C15.3452 13.7459 15.5333 13.8248 15.6723 13.9638C15.8114 14.1029 15.8903 14.291 15.892 14.4876C15.8937 14.6843 15.8181 14.8737 15.6815 15.0152L11.1815 19.5152C11.0408 19.6558 10.8501 19.7349 10.6512 19.7349Z" fill="black"/>
</svg>
