<svg width="25" height="25" viewBox="0 0 25 25" fill="none" xmlns="http://www.w3.org/2000/svg">
<g clip-path="url(#clip0_465_7401)">
<path d="M11.4015 24.9799L11.1315 24.8749C8.11654 23.7388 5.52092 21.7082 3.6925 19.0554C1.86408 16.4026 0.89023 13.2543 0.901463 10.0324L0.901463 5.0599L11.4015 1.0249L21.9015 5.0599L21.9015 10.0324C21.9112 13.253 20.9366 16.3997 19.1083 19.051C17.28 21.7023 14.6852 23.7317 11.6715 24.8674L11.4015 24.9799ZM2.40146 6.0949L2.40146 10.0324C2.39362 12.8999 3.24744 15.7036 4.85221 18.08C6.45698 20.4564 8.73868 22.2959 11.4015 23.3599C14.0642 22.2959 16.3459 20.4564 17.9507 18.08C19.5555 15.7036 20.4093 12.8999 20.4015 10.0324L20.4015 6.0949L11.4015 2.6299L2.40146 6.0949Z" fill="black"/>
<path d="M7.65137 14.3525H9.15137L9.15137 18.23H7.65137L7.65137 14.3525ZM9.15137 8.61498L9.15137 6.22998H7.65137L7.65137 8.61498C7.15096 8.7919 6.72921 9.14003 6.46065 9.59784C6.19209 10.0556 6.09402 10.5937 6.18378 11.1168C6.27353 11.6399 6.54533 12.1145 6.95113 12.4566C7.35693 12.7987 7.87061 12.9863 8.40137 12.9863C8.93214 12.9863 9.44581 12.7987 9.85162 12.4566C10.2574 12.1145 10.5292 11.6399 10.619 11.1168C10.7087 10.5937 10.6107 10.0556 10.3421 9.59784C10.0735 9.14003 9.65178 8.7919 9.15137 8.61498ZM8.40137 11.48C8.20246 11.48 8.01169 11.401 7.87104 11.2603C7.73039 11.1197 7.65137 10.9289 7.65137 10.73C7.65137 10.5311 7.73039 10.3403 7.87104 10.1997C8.01169 10.059 8.20246 9.97998 8.40137 9.97998C8.60028 9.97998 8.79105 10.059 8.9317 10.1997C9.07235 10.3403 9.15137 10.5311 9.15137 10.73C9.15137 10.9289 9.07235 11.1197 8.9317 11.2603C8.79105 11.401 8.60028 11.48 8.40137 11.48ZM13.6514 6.22998H15.1514L15.1514 10.1075H13.6514L13.6514 6.22998ZM16.6514 13.73C16.6525 13.3172 16.5401 12.9121 16.3265 12.5589C16.1128 12.2058 15.8061 11.9182 15.4399 11.7277C15.0737 11.5372 14.6622 11.451 14.2504 11.4787C13.8386 11.5064 13.4423 11.6469 13.1049 11.8847C12.7676 12.1226 12.5021 12.4486 12.3377 12.8272C12.1732 13.2058 12.1161 13.6223 12.1725 14.0312C12.2289 14.4401 12.3967 14.8256 12.6576 15.1455C12.9184 15.4654 13.2622 15.7074 13.6514 15.845L13.6514 18.23H15.1514L15.1514 15.845C15.589 15.6902 15.9681 15.4039 16.2367 15.0253C16.5052 14.6466 16.6501 14.1942 16.6514 13.73ZM14.4014 14.48C14.2025 14.48 14.0117 14.401 13.871 14.2603C13.7304 14.1197 13.6514 13.9289 13.6514 13.73C13.6514 13.5311 13.7304 13.3403 13.871 13.1996C14.0117 13.059 14.2025 12.98 14.4014 12.98C14.6003 12.98 14.7911 13.059 14.9317 13.1996C15.0724 13.3403 15.1514 13.5311 15.1514 13.73C15.1514 13.9289 15.0724 14.1197 14.9317 14.2603C14.7911 14.401 14.6003 14.48 14.4014 14.48Z" fill="black"/>
</g>
<defs>
<clipPath id="clip0_465_7401">
<rect width="24" height="24" fill="white" transform="translate(0.901367 0.97998)"/>
</clipPath>
</defs>
</svg>
