<svg width="21" height="22" viewBox="0 0 21 22" fill="none" xmlns="http://www.w3.org/2000/svg">
<path d="M20.5762 13.6469L19.041 12.3344C19.1137 11.8891 19.1512 11.4344 19.1512 10.9797C19.1512 10.525 19.1137 10.0703 19.041 9.625L20.5762 8.3125C20.692 8.21337 20.7748 8.08135 20.8138 7.93398C20.8527 7.78661 20.8459 7.63088 20.7941 7.4875L20.7731 7.42656C20.3504 6.24537 19.7176 5.1504 18.9051 4.19453L18.8629 4.14531C18.7643 4.02942 18.633 3.94611 18.4861 3.90636C18.3393 3.86661 18.1838 3.8723 18.0402 3.92266L16.1348 4.6C15.4316 4.02344 14.6465 3.56875 13.7981 3.25L13.4301 1.25781C13.4023 1.10791 13.3296 0.970006 13.2216 0.862417C13.1136 0.754828 12.9754 0.682649 12.8254 0.655469L12.7621 0.64375C11.541 0.423438 10.2566 0.423438 9.03555 0.64375L8.97227 0.655469C8.82226 0.682649 8.68407 0.754828 8.57607 0.862417C8.46806 0.970006 8.39534 1.10791 8.36758 1.25781L7.99727 3.25938C7.1556 3.57819 6.3718 4.03264 5.67696 4.60469L3.75743 3.92266C3.61391 3.8719 3.45834 3.86601 3.3114 3.90578C3.16446 3.94555 3.03309 4.0291 2.93477 4.14531L2.89258 4.19453C2.08105 5.15107 1.44831 6.24587 1.02461 7.42656L1.00352 7.4875C0.898052 7.78047 0.98477 8.10859 1.22149 8.3125L2.7754 9.63906C2.70274 10.0797 2.66758 10.5297 2.66758 10.9773C2.66758 11.4273 2.70274 11.8773 2.7754 12.3156L1.22149 13.6422C1.1057 13.7413 1.02282 13.8733 0.983889 14.0207C0.944954 14.1681 0.951801 14.3238 1.00352 14.4672L1.02461 14.5281C1.44883 15.7094 2.07696 16.7992 2.89258 17.7602L2.93477 17.8094C3.03334 17.9253 3.1647 18.0086 3.31156 18.0483C3.45841 18.0881 3.61386 18.0824 3.75743 18.032L5.67696 17.35C6.3754 17.9242 7.15586 18.3789 7.99727 18.6953L8.36758 20.6969C8.39534 20.8468 8.46806 20.9847 8.57607 21.0923C8.68407 21.1999 8.82226 21.272 8.97227 21.2992L9.03555 21.3109C10.2679 21.5324 11.5298 21.5324 12.7621 21.3109L12.8254 21.2992C12.9754 21.272 13.1136 21.1999 13.2216 21.0923C13.3296 20.9847 13.4023 20.8468 13.4301 20.6969L13.7981 18.7047C14.6461 18.3868 15.4357 17.9306 16.1348 17.3547L18.0402 18.032C18.1838 18.0828 18.3393 18.0887 18.4863 18.0489C18.6332 18.0091 18.7646 17.9256 18.8629 17.8094L18.9051 17.7602C19.7207 16.7969 20.3488 15.7094 20.7731 14.5281L20.7941 14.4672C20.8996 14.1789 20.8129 13.8508 20.5762 13.6469ZM17.377 9.90156C17.4356 10.2555 17.466 10.6187 17.466 10.982C17.466 11.3453 17.4356 11.7086 17.377 12.0625L17.2223 13.0023L18.9731 14.5C18.7076 15.1115 18.3726 15.6903 17.9746 16.225L15.7996 15.4539L15.0637 16.0586C14.5035 16.518 13.8801 16.8789 13.2051 17.132L12.3121 17.4672L11.8926 19.7406C11.2306 19.8156 10.5623 19.8156 9.90039 19.7406L9.48086 17.4625L8.59493 17.1227C7.92696 16.8695 7.30586 16.5086 6.7504 16.0516L6.01446 15.4445L3.8254 16.2227C3.42696 15.6859 3.09415 15.107 2.82696 14.4977L4.59649 12.9859L4.44415 12.0484C4.3879 11.6992 4.35743 11.3383 4.35743 10.982C4.35743 10.6234 4.38555 10.2648 4.44415 9.91562L4.59649 8.97812L2.82696 7.46641C3.0918 6.85469 3.42696 6.27812 3.8254 5.74141L6.01446 6.51953L6.7504 5.9125C7.30586 5.45547 7.92696 5.09453 8.59493 4.84141L9.48321 4.50625L9.90274 2.22813C10.5613 2.15313 11.234 2.15313 11.8949 2.22813L12.3145 4.50156L13.2074 4.83672C13.8801 5.08984 14.5059 5.45078 15.066 5.91016L15.802 6.51484L17.977 5.74375C18.3754 6.28047 18.7082 6.85938 18.9754 7.46875L17.2246 8.96641L17.377 9.90156ZM10.9012 6.62266C8.62305 6.62266 6.77618 8.46953 6.77618 10.7477C6.77618 13.0258 8.62305 14.8727 10.9012 14.8727C13.1793 14.8727 15.0262 13.0258 15.0262 10.7477C15.0262 8.46953 13.1793 6.62266 10.9012 6.62266ZM12.7574 12.6039C12.514 12.8481 12.2246 13.0417 11.9061 13.1736C11.5875 13.3056 11.246 13.3732 10.9012 13.3727C10.2004 13.3727 9.5418 13.0984 9.04493 12.6039C8.80076 12.3604 8.60715 12.0711 8.47521 11.7525C8.34328 11.434 8.27564 11.0925 8.27618 10.7477C8.27618 10.0469 8.5504 9.38828 9.04493 8.89141C9.5418 8.39453 10.2004 8.12266 10.9012 8.12266C11.602 8.12266 12.2606 8.39453 12.7574 8.89141C13.0016 9.13487 13.1952 9.42421 13.3271 9.74277C13.4591 10.0613 13.5267 10.4029 13.5262 10.7477C13.5262 11.4484 13.252 12.107 12.7574 12.6039Z" fill="black"/>
</svg>
