<svg width="25" height="25" viewBox="0 0 25 25" fill="none" xmlns="http://www.w3.org/2000/svg">
<g clip-path="url(#clip0_469_7447)">
<path d="M15.0314 13.7532L13.0514 15.7432C13.5714 17.1432 13.4614 18.6832 12.7614 19.9832C12.6014 20.2932 12.4014 20.5832 12.1714 20.8632L11.3914 21.9232C11.2414 22.1232 11.0214 22.2232 10.7914 22.2232C10.6314 22.2232 10.4714 22.1732 10.3414 22.0732C10.0114 21.8332 9.9414 21.3632 10.1914 21.0232L10.9714 19.9832L11.0014 19.9432C11.9614 18.7832 12.1414 17.2132 11.4914 15.9032C11.3414 15.6132 11.4014 15.2732 11.6314 15.0432L13.9714 12.6932C14.4214 12.2532 14.6614 11.6632 14.6614 11.0332C14.6614 10.2182 14.0554 9.44416 14.0414 9.44316C14.0274 9.44216 13.4244 10.0132 13.4244 10.0132L7.9014 15.1132L7.1614 15.7932C6.8514 16.0832 6.3814 16.0632 6.1014 15.7532C5.8214 15.4532 5.8414 14.9732 6.1414 14.6932L7.9014 13.0732L13.1014 8.27316C13.6514 7.76316 14.5014 7.78316 15.0314 8.31316C15.7614 9.04316 16.1614 10.0032 16.1614 11.0332C16.1614 12.0632 15.7614 13.0232 15.0314 13.7532Z" fill="black"/>
<path d="M13.6514 24.9836H3.65137C3.23737 24.9836 2.90137 24.6476 2.90137 24.2336L2.90137 15.7956C2.90137 13.7326 3.82537 11.8106 5.43737 10.5226L7.78237 8.64761C8.10537 8.39061 8.57737 8.44261 8.83737 8.76461C9.09637 9.08861 9.04337 9.56061 8.72037 9.81961L6.37437 11.6946C5.12037 12.6966 4.40137 14.1906 4.40137 15.7966L4.40137 23.4836H12.9014L12.9014 22.2366C12.9014 21.8226 13.2374 21.4866 13.6514 21.4866C14.6164 21.4866 15.4014 20.7016 15.4014 19.7366L15.4014 17.7336C15.4014 17.3196 15.7374 16.9836 16.1514 16.9836C16.5654 16.9836 16.9014 17.3196 16.9014 17.7336L16.9014 19.7366C16.9014 21.2706 15.8334 22.5596 14.4014 22.8996L14.4014 24.2336C14.4014 24.6476 14.0654 24.9836 13.6514 24.9836Z" fill="black"/>
<path d="M12.4014 19.9834C12.2884 19.9834 12.1744 19.9584 12.0664 19.9044C11.6954 19.7184 11.5454 19.2684 11.7314 18.8984L11.8364 18.6874C12.5164 17.3284 13.8824 16.4834 15.4014 16.4834C16.8434 16.4834 18.1484 17.2444 18.8584 18.4834H20.1514C20.8404 18.4834 21.4014 17.9224 21.4014 17.2334L21.4014 3.7334C21.4014 3.0444 20.8404 2.4834 20.1514 2.4834H18.8574C18.1484 3.7224 16.8444 4.4834 15.4014 4.4834C13.9584 4.4834 12.6544 3.7224 11.9444 2.4834H10.6514C9.96237 2.4834 9.40137 3.0444 9.40137 3.7334L9.40137 13.1394C9.40137 13.5534 9.06537 13.8894 8.65137 13.8894C8.23737 13.8894 7.90137 13.5534 7.90137 13.1394L7.90137 3.7334C7.90137 2.2164 9.13437 0.983398 10.6514 0.983398H12.4014C12.6854 0.983398 12.9444 1.1434 13.0714 1.3974L13.1774 1.6084C13.6014 2.4574 14.4534 2.9834 15.4014 2.9834C16.3494 2.9834 17.2014 2.4564 17.6254 1.6084L17.7314 1.3974C17.8584 1.1434 18.1174 0.983398 18.4014 0.983398H20.1514C21.6684 0.983398 22.9014 2.2164 22.9014 3.7334L22.9014 17.2334C22.9014 18.7504 21.6684 19.9834 20.1514 19.9834H18.4014C18.1174 19.9834 17.8574 19.8224 17.7304 19.5684L17.6254 19.3574C17.2014 18.5094 16.3494 17.9834 15.4014 17.9834C14.4534 17.9834 13.6014 18.5104 13.1774 19.3584L13.0724 19.5694C12.9414 19.8314 12.6754 19.9834 12.4014 19.9834Z" fill="black"/>
<path d="M10.9014 7.9834H8.90137C8.48737 7.9834 8.15137 7.6474 8.15137 7.2334C8.15137 6.8194 8.48737 6.4834 8.90137 6.4834H10.9014C11.3154 6.4834 11.6514 6.8194 11.6514 7.2334C11.6514 7.6474 11.3154 7.9834 10.9014 7.9834Z" fill="black"/>
<path d="M16.9014 7.9834H13.9014C13.4874 7.9834 13.1514 7.6474 13.1514 7.2334C13.1514 6.8194 13.4874 6.4834 13.9014 6.4834H16.9014C17.3154 6.4834 17.6514 6.8194 17.6514 7.2334C17.6514 7.6474 17.3154 7.9834 16.9014 7.9834Z" fill="black"/>
<path d="M21.9014 7.9834H19.9014C19.4874 7.9834 19.1514 7.6474 19.1514 7.2334C19.1514 6.8194 19.4874 6.4834 19.9014 6.4834H21.9014C22.3154 6.4834 22.6514 6.8194 22.6514 7.2334C22.6514 7.6474 22.3154 7.9834 21.9014 7.9834Z" fill="black"/>
</g>
<defs>
<clipPath id="clip0_469_7447">
<rect width="24" height="24" fill="white" transform="translate(0.901367 0.983398)"/>
</clipPath>
</defs>
</svg>
