<svg width="25" height="24" viewBox="0 0 25 24" fill="none" xmlns="http://www.w3.org/2000/svg">
<g clip-path="url(#clip0_465_7427)">
<path d="M21.387 3.50853C16.6983 -1.18023 9.10857 -1.18093 4.41916 3.50853C-0.269646 8.19738 -0.270208 15.7869 4.41916 20.4764C7.94569 24.0029 13.0139 24.8125 17.2195 23.1904C17.6059 23.0414 17.7983 22.6073 17.6493 22.2209C17.5003 21.8345 17.0662 21.6421 16.6798 21.7911C9.80984 24.4409 2.40475 19.3385 2.40475 11.9924C2.40475 6.20364 7.11427 1.49412 12.903 1.49412C20.8126 1.49412 25.8611 9.94788 22.1909 16.8911C21.9973 17.2573 22.1373 17.711 22.5034 17.9046C22.8696 18.0981 23.3233 17.9582 23.5168 17.592C25.8596 13.1597 25.2799 7.40152 21.387 3.50853Z" fill="black"/>
<path d="M20.2553 19.506C19.857 19.5842 19.5858 19.9732 19.6666 20.3876C19.7877 21.0014 20.5744 21.2082 20.9818 20.7166C21.423 20.182 20.9515 19.3693 20.2553 19.506Z" fill="black"/>
<path d="M17.4019 16.492C17.4019 16.0779 17.0662 15.7422 16.652 15.7422H8.71382L11.1832 13.2728C11.476 12.98 11.476 12.5052 11.1832 12.2123C10.8903 11.9195 10.4155 11.9195 10.1227 12.2123L6.37331 15.9617C6.12646 16.208 6.08686 16.5879 6.26172 16.8784C6.33197 16.9947 6.00761 16.6564 10.1227 20.7716C10.2691 20.918 10.461 20.9913 10.6529 20.9913C11.3149 20.9913 11.657 20.1849 11.1831 19.7112L8.71392 17.242H16.6519C17.0662 17.2419 17.4019 16.9061 17.4019 16.492Z" fill="black"/>
<path d="M18.0254 7.90949C18.2244 7.61169 18.1818 7.21655 17.935 6.96661C17.8866 6.91768 14.285 3.3163 14.1825 3.2138C13.8897 2.92092 13.4148 2.92092 13.122 3.2138C12.8291 3.50662 12.8291 3.98144 13.122 4.27427L15.5914 6.74361H7.6532C7.23903 6.74361 6.90332 7.07937 6.90332 7.49349C6.90332 7.90761 7.23903 8.24337 7.6532 8.24337H15.5912L13.122 10.7126C12.6482 11.1864 12.9902 11.9927 13.6522 11.9927C13.8441 11.9927 14.036 11.9195 14.1824 11.773C18.1486 7.80685 17.9642 8.00116 18.0254 7.90949Z" fill="black"/>
</g>
<defs>
<clipPath id="clip0_465_7427">
<rect width="24" height="24" fill="white" transform="translate(0.901367 -0.00830078)"/>
</clipPath>
</defs>
</svg>
