<svg width="25" height="24" viewBox="0 0 25 24" fill="none" xmlns="http://www.w3.org/2000/svg">
<g clip-path="url(#clip0_465_7424)">
<path d="M17.8644 23.9902H0.901367L0.901367 15.084H4.22958C5.03354 13.7852 6.45999 12.9746 8.01635 12.9746C8.46581 12.9746 8.9098 13.0416 9.33592 13.1737C10.4149 13.5081 11.482 13.6777 12.5074 13.6777H14.9851C16.4124 13.6777 17.5948 14.7463 17.7742 16.1255L20.1015 13.7984C21.1982 12.7018 22.9826 12.7018 24.0792 13.7984C24.6104 14.3296 24.903 15.0358 24.903 15.7871C24.903 16.5383 24.6104 17.2446 24.0791 17.7758L17.8644 23.9902ZM2.77649 22.1152H17.0876L22.7532 16.45C22.9303 16.2729 23.0279 16.0375 23.0279 15.7871C23.0279 15.5367 22.9303 15.3013 22.7532 15.1242C22.3877 14.7586 21.7929 14.7587 21.4273 15.1242L17.2485 19.3027H9.35964L9.35964 17.4277H15.9226L15.9226 16.4902C15.9226 15.9733 15.502 15.5527 14.985 15.5527H12.5074C11.2935 15.5527 10.0396 15.3549 8.78065 14.9646C8.53449 14.8883 8.27732 14.8496 8.01625 14.8496C6.9914 14.8496 6.06373 15.457 5.65284 16.397L5.40725 16.959H2.77649L2.77649 22.1152ZM20.4027 10.3027H5.40167L5.40167 -0.00976562H20.4027L20.4027 10.3027ZM7.2768 8.42773H18.5276L18.5276 5.61523H7.2768L7.2768 8.42773ZM7.2768 3.74023H18.5276L18.5276 1.86523H7.2768L7.2768 3.74023Z" fill="black"/>
</g>
<defs>
<clipPath id="clip0_465_7424">
<rect width="24.0016" height="24" fill="white" transform="translate(0.901367 -0.00976562)"/>
</clipPath>
</defs>
</svg>
