<svg width="25" height="25" viewBox="0 0 25 25" fill="none" xmlns="http://www.w3.org/2000/svg">
<g clip-path="url(#clip0_465_7421)">
<path d="M2.40142 15.6138H4.65157L4.65157 19.8888C4.65215 20.4857 4.88795 21.0583 5.30786 21.4825C5.72174 21.8951 6.27989 22.1304 6.86422 22.1388H13.6147C14.6271 23.3307 16.0693 24.0746 17.6274 24.2088H17.6837C17.8412 24.2088 18.0062 24.2313 18.1675 24.2313C19.3042 24.2297 20.4172 23.9053 21.3767 23.2958C22.3362 22.6863 23.1028 21.8168 23.5873 20.7886C24.0718 19.7603 24.2543 18.6156 24.1134 17.4876C23.9725 16.3597 23.5141 15.295 22.7915 14.4175C22.43 13.9846 22.0081 13.6057 21.539 13.2925C21.3501 13.1642 21.1535 13.0477 20.9502 12.9438L20.9502 6.56877C20.9505 6.45124 20.9222 6.3354 20.8677 6.23127L20.8489 6.19377C20.8157 6.1374 20.7767 6.08462 20.7327 6.03627L16.6749 1.96002C16.6341 1.92099 16.5888 1.88699 16.5399 1.85877L16.4836 1.82502C16.436 1.80544 16.3872 1.78916 16.3374 1.77627L16.2398 1.73877H16.1461H8.40182C8.2029 1.73877 8.01212 1.81779 7.87146 1.95844C7.73079 2.09909 7.65177 2.28986 7.65177 2.48877L7.65177 3.98877H3.90152C3.30474 3.98877 2.73241 4.22582 2.31042 4.64778C1.88844 5.06974 1.65137 5.64203 1.65137 6.23877L1.65137 14.8638C1.65137 15.0627 1.73039 15.2534 1.87105 15.3941C2.01171 15.5348 2.20249 15.6138 2.40142 15.6138ZM16.8961 5.79252L16.8961 4.29252L18.3962 5.79252H16.8961ZM9.15187 3.23877H15.396L15.396 6.53877C15.396 6.73768 15.4751 6.92845 15.6157 7.0691C15.7564 7.20975 15.9472 7.28877 16.1461 7.28877H19.4501L19.4501 12.3775C19.0238 12.2848 18.5887 12.2383 18.1525 12.2388C17.4767 12.24 16.806 12.3554 16.1686 12.58L16.3674 12.2463C16.4438 12.0771 16.4548 11.8855 16.3982 11.7087C16.3416 11.5319 16.2214 11.3823 16.0609 11.289C15.9003 11.1957 15.7109 11.1652 15.5292 11.2035C15.3475 11.2418 15.1865 11.3461 15.0773 11.4963L13.9259 13.4313C13.8245 13.6023 13.7952 13.8067 13.8444 13.9994C13.8937 14.1921 14.0174 14.3573 14.1885 14.4588L16.1236 15.6063C16.2947 15.7077 16.499 15.737 16.6917 15.6878C16.8844 15.6386 17.0497 15.5148 17.1512 15.3438C17.2526 15.1727 17.2819 14.9684 17.2327 14.7757C17.1834 14.583 17.0597 14.4177 16.8886 14.3163L16.4836 14.0763C17.1677 13.8029 17.9084 13.7017 18.6408 13.7815C19.3731 13.8613 20.0747 14.1196 20.6839 14.5338C21.035 14.772 21.3496 15.06 21.6177 15.3888C22.1564 16.0469 22.4975 16.8442 22.6015 17.6882C22.7056 18.5322 22.5683 19.3885 22.2057 20.1577C21.843 20.9269 21.2698 21.5776 20.5524 22.0345C19.8351 22.4913 19.0029 22.7355 18.1525 22.7388C18.0438 22.7444 17.9349 22.7444 17.8262 22.7388H17.7775C17.1855 22.6902 16.6092 22.5239 16.0824 22.2496C15.5556 21.9752 15.0889 21.5984 14.7097 21.1413C14.6593 21.0085 14.5722 20.8927 14.4585 20.8075L14.436 20.7813C13.9225 20.0331 13.6491 19.1462 13.6522 18.2388C13.6522 18.0399 13.5732 17.8491 13.4325 17.7084C13.2918 17.5678 13.101 17.4888 12.9021 17.4888C12.7032 17.4888 12.5124 17.5678 12.3718 17.7084C12.2311 17.8491 12.1521 18.0399 12.1521 18.2388C12.1532 19.0664 12.3256 19.8848 12.6584 20.6425H9.00936L9.00936 20.5975C9.04006 20.5041 9.06511 20.4089 9.08437 20.3125C9.08437 20.2825 9.08437 20.2488 9.08437 20.215C9.09774 20.1218 9.10526 20.0279 9.10687 19.9338C9.10687 19.9338 9.10687 19.9075 9.10687 19.8925L9.15187 3.23877ZM7.65177 5.48877L7.65177 19.8888C7.65263 20.0373 7.60938 20.1827 7.52749 20.3066C7.4456 20.4305 7.32877 20.5273 7.1918 20.5848C7.05483 20.6422 6.90388 20.6577 6.7581 20.6292C6.61232 20.6008 6.47827 20.5297 6.37293 20.425C6.30229 20.3548 6.24634 20.2712 6.20835 20.1792C6.17036 20.0871 6.15109 19.9884 6.15167 19.8888L6.15167 6.23877C6.15099 6.12191 6.14096 6.00528 6.12167 5.89002C6.12167 5.87127 6.12167 5.85627 6.12167 5.83752C6.10169 5.72946 6.07411 5.62295 6.03916 5.51877C6.03916 5.51877 6.03916 5.50002 6.03916 5.48877H7.65177ZM3.15147 6.23877C3.15147 6.03986 3.23049 5.84909 3.37115 5.70844C3.51181 5.56779 3.70259 5.48877 3.90152 5.48877C4.10044 5.48877 4.29122 5.56779 4.43188 5.70844C4.57255 5.84909 4.65157 6.03986 4.65157 6.23877L4.65157 14.1138H3.15147L3.15147 6.23877Z" fill="black"/>
<path d="M16.1465 19.3641H18.5279C18.7269 19.3641 18.9176 19.285 19.0583 19.1444C19.199 19.0037 19.278 18.8129 19.278 18.614L19.278 15.6138C19.278 15.4149 19.199 15.2241 19.0583 15.0835C18.9176 14.9428 18.7269 14.8638 18.5279 14.8638C18.329 14.8638 18.1382 14.9428 17.9976 15.0835C17.8569 15.2241 17.7779 15.4149 17.7779 15.6138L17.7779 17.864H16.1465C15.9476 17.864 15.7568 17.943 15.6162 18.0837C15.4755 18.2243 15.3965 18.4151 15.3965 18.614C15.3965 18.8129 15.4755 19.0037 15.6162 19.1444C15.7568 19.285 15.9476 19.3641 16.1465 19.3641Z" fill="black"/>
</g>
<defs>
<clipPath id="clip0_465_7421">
<rect width="24.0016" height="24" fill="white" transform="translate(0.901367 0.98877)"/>
</clipPath>
</defs>
</svg>
